<svg xmlns="http://www.w3.org/2000/svg" xmlns:xlink="http://www.w3.org/1999/xlink" width="645.813" height="414.338" viewBox="0 0 645.813 414.338">
  <defs>
    <clipPath id="clip-path">
      <path id="Caminho_7133" data-name="Caminho 7133" d="M2969.346,251.335h365.143a.369.369,0,0,1,.368.368V483.689a.37.37,0,0,1-.368.368H2969.346a.368.368,0,0,1-.367-.368V251.7a.367.367,0,0,1,.367-.368" transform="translate(-2968.979 -251.335)" fill="none" clip-rule="evenodd"/>
    </clipPath>
    <clipPath id="clip-path-2">
      <path id="Caminho_7163" data-name="Caminho 7163" d="M3044.921,287.1h-92.1a15.393,15.393,0,0,0-15.349,15.347V493.034a15.4,15.4,0,0,0,15.349,15.349h92.1a15.4,15.4,0,0,0,15.35-15.349V302.443a15.394,15.394,0,0,0-15.35-15.347" transform="translate(-2937.473 -287.096)" fill="none" clip-rule="evenodd"/>
    </clipPath>
    <clipPath id="clip-path-3">
      <path id="Retângulo_957" data-name="Retângulo 957" d="M3.753,0H104.4a3.753,3.753,0,0,1,3.753,3.753V169.7a3.754,3.754,0,0,1-3.754,3.754H3.754A3.754,3.754,0,0,1,0,169.7V3.753A3.753,3.753,0,0,1,3.753,0Z" fill="none"/>
    </clipPath>
  </defs>
  <g id="Grupo_499" data-name="Grupo 499" transform="translate(-2898 -200.325)">
    <path id="Caminho_7131" data-name="Caminho 7131" d="M3006.823,487.478h-53.007c-30.7,0-55.816,25.481-55.816,56.627s25.115,56.627,55.816,56.627h499.613c49.711,0,90.383-41.263,90.383-91.694s-40.67-91.7-90.383-91.7c-21.019,0-40.028-17.448-40.028-38.772s17.2-38.77,38.212-38.77h21.615c21.853,0,39.731-18.139,39.731-40.311s-17.878-40.306-39.731-40.306H3411.64a15.7,15.7,0,0,1,0-31.388h10.252a10.786,10.786,0,0,0,10.677-10.829v0a10.789,10.789,0,0,0-10.677-10.831h-63.845c-14.169,0-15.748,16.982-51.536,16.982H3239.2a14.074,14.074,0,0,0-13.928,14.132h0a14.072,14.072,0,0,0,13.928,14.132h3.77a20.479,20.479,0,0,1,0,40.955h-20.132c-54.365,0-62.044,14.417-71.566,43.085s-80.306,30.979-80.306,30.979h7.124c-16.729,0-30.417,13.886-30.417,30.857s13.688,30.861,30.417,30.861h3.482c16.09,0-45.488,13.356-45.488,29.683S3022.915,487.478,3006.823,487.478Z" transform="translate(0 6.615)" fill="#dac5f9" fill-rule="evenodd"/>
    <path id="Caminho_7132" data-name="Caminho 7132" d="M2984.315,243.417h352.622a23.05,23.05,0,0,1,22.982,22.982V471.931H2961.334V266.4a23.05,23.05,0,0,1,22.981-22.982" transform="translate(72.155 49.094)" fill="#6800ff" fill-rule="evenodd"/>
    <g id="Grupo_494" data-name="Grupo 494" transform="translate(3049.844 309.449)">
      <g id="Grupo_493" data-name="Grupo 493" clip-path="url(#clip-path)">
        <rect id="Retângulo_948" data-name="Retângulo 948" width="365.878" height="232.722" transform="translate(-0.001)" fill="#fff"/>
      </g>
    </g>
    <path id="Caminho_7134" data-name="Caminho 7134" d="M3058.848,367.561c-1.619,29.265-5.9,36.667-35.581,53.345h131.565c-29.679-16.678-33.961-24.08-35.578-53.345l-30.2-2.379Z" transform="translate(142.715 187.819)" fill="#f2f2f2" fill-rule="evenodd"/>
    <path id="Caminho_7135" data-name="Caminho 7135" d="M3359.919,350.235v15.1a23.05,23.05,0,0,1-22.982,22.982H2984.315a23.049,23.049,0,0,1-22.981-22.982v-15.1Z" transform="translate(72.155 170.79)" fill="#f2f2f2" fill-rule="evenodd"/>
    <rect id="Retângulo_949" data-name="Retângulo 949" width="398.584" height="24.146" transform="translate(3033.49 506.134)" fill="#6800ff"/>
    <path id="Caminho_7136" data-name="Caminho 7136" d="M3055.8,357.493a4.092,4.092,0,1,1-4.092,4.092,4.093,4.093,0,0,1,4.092-4.092" transform="translate(175.123 179.059)" fill="#222" fill-rule="evenodd"/>
    <rect id="Retângulo_950" data-name="Retângulo 950" width="104.87" height="162.092" transform="translate(3070.373 333.173)" fill="#222"/>
    <path id="Caminho_7137" data-name="Caminho 7137" d="M2982.181,323.606" transform="translate(95.906 140.452)" fill="#fff" fill-rule="evenodd"/>
    <path id="Caminho_7138" data-name="Caminho 7138" d="M2983.625,273.413h82.826a2.721,2.721,0,0,1,2.714,2.713h0a2.723,2.723,0,0,1-2.714,2.713h-82.826a2.72,2.72,0,0,1-2.712-2.713h0a2.719,2.719,0,0,1,2.712-2.713" transform="translate(94.462 83.268)" fill="#fff" fill-rule="evenodd"/>
    <path id="Caminho_7139" data-name="Caminho 7139" d="M2983.625,280.254h82.826a2.723,2.723,0,0,1,2.714,2.713h0a2.721,2.721,0,0,1-2.714,2.713h-82.826a2.719,2.719,0,0,1-2.712-2.713h0a2.72,2.72,0,0,1,2.712-2.713" transform="translate(94.462 91.062)" fill="#fff" fill-rule="evenodd"/>
    <path id="Caminho_7140" data-name="Caminho 7140" d="M2983.625,287.1h22.557a2.72,2.72,0,0,1,2.713,2.713h0a2.72,2.72,0,0,1-2.713,2.713h-22.557a2.72,2.72,0,0,1-2.712-2.713h0a2.72,2.72,0,0,1,2.712-2.713" transform="translate(94.462 98.857)" fill="#fff" fill-rule="evenodd"/>
    <path id="Caminho_7141" data-name="Caminho 7141" d="M2998.6,287.1h22.559a2.72,2.72,0,0,1,2.713,2.713h0a2.72,2.72,0,0,1-2.713,2.713H2998.6a2.721,2.721,0,0,1-2.712-2.713h0a2.721,2.721,0,0,1,2.712-2.713" transform="translate(111.518 98.857)" fill="#fff" fill-rule="evenodd"/>
    <path id="Caminho_7142" data-name="Caminho 7142" d="M2983.624,295.37h30.348a2.718,2.718,0,0,1,2.712,2.71v0a2.72,2.72,0,0,1-2.712,2.713h-30.348a2.72,2.72,0,0,1-2.711-2.713v0a2.718,2.718,0,0,1,2.711-2.71" transform="translate(94.462 108.283)" fill="#fff" fill-rule="evenodd"/>
    <path id="Caminho_7143" data-name="Caminho 7143" d="M2983.625,301.568h36.689a2.719,2.719,0,0,1,2.713,2.713h0a2.72,2.72,0,0,1-2.713,2.713h-36.689a2.72,2.72,0,0,1-2.712-2.713h0a2.719,2.719,0,0,1,2.712-2.713" transform="translate(94.462 115.344)" fill="#fff" fill-rule="evenodd"/>
    <path id="Caminho_7144" data-name="Caminho 7144" d="M3280.438,257.1H2994.013a2.608,2.608,0,0,0,0,5.216h286.426a2.608,2.608,0,0,0,0-5.216m-286.426-.975h286.426a3.584,3.584,0,0,1,0,7.169H2994.013a3.584,3.584,0,0,1,0-7.169Z" transform="translate(105.302 63.567)" fill="#6800ff"/>
    <rect id="Retângulo_951" data-name="Retângulo 951" width="7.231" height="7.673" transform="translate(3071.02 319.437)" fill="#ff2c34"/>
    <rect id="Retângulo_952" data-name="Retângulo 952" width="217.516" height="29.893" transform="translate(3187.897 335.26)" fill="#f2f2f2"/>
    <rect id="Retângulo_953" data-name="Retângulo 953" width="124.498" height="29.893" transform="translate(3279.644 376.9)" fill="#f2f2f2"/>
    <rect id="Retângulo_954" data-name="Retângulo 954" width="124.498" height="29.893" transform="translate(3279.644 415.885)" fill="#f2f2f2"/>
    <path id="Caminho_7145" data-name="Caminho 7145" d="M3034.208,327.609" transform="translate(155.18 145.012)" fill="#f2f2f2" fill-rule="evenodd"/>
    <path id="Caminho_7146" data-name="Caminho 7146" d="M2904.93,389.966h605.5a2.536,2.536,0,0,1,0,5.072h-605.5a2.536,2.536,0,0,1,0-5.072" transform="translate(5.007 216.055)" fill="#222" fill-rule="evenodd"/>
    <path id="Caminho_7147" data-name="Caminho 7147" d="M3035.167,213.03h23.32c2.912,0,10.079,5.511,11.336,12.7h0c2.371,11.559,1.315,37-6.873,46.072l-9.283-.12-28.437-7.051v-48a15.487,15.487,0,0,1,9.935-3.6" transform="translate(144.953 14.474)" fill="#dac5f9" fill-rule="evenodd"/>
    <path id="Caminho_7148" data-name="Caminho 7148" d="M3040.777,213.065c11.515,1.132,12.587,15.6,12.438,24.634h-12.431Z" transform="translate(162.664 14.514)" fill="#dac5f9" fill-rule="evenodd"/>
    <path id="Caminho_7149" data-name="Caminho 7149" d="M3057,224.668l11.309-.088c-4.463,12.213-13,22.6-24.311,22.6H3027.53s3.5-4.486,8.112-4.861,4.794.259,4.794.259c3.859-2.03,12.781-8.9,16.562-17.91" transform="translate(147.572 27.633)" fill="#8a6037" fill-rule="evenodd"/>
    <path id="Caminho_7150" data-name="Caminho 7150" d="M3053.434,267.89l1.128,8.112,2.9,2.68s2.26-.107,2.523.678a7.313,7.313,0,0,1,0,2.462H3045.15a67.117,67.117,0,0,1-1.711-13.467Z" transform="translate(165.697 76.975)" fill="#222"/>
    <path id="Caminho_7151" data-name="Caminho 7151" d="M3021.257,235.144h49.275a8.765,8.765,0,0,1,1.636.152h0c13.756-.071,15.465,8.835,16.43,18.541l5.552,55.76h-18.676l-6.161-56.755h-48.058a8.849,8.849,0,1,1,0-17.7" transform="translate(130.344 39.668)" fill="#222" fill-rule="evenodd"/>
    <path id="Caminho_7152" data-name="Caminho 7152" d="M3022.835,259.936l6.766,15.148a12.236,12.236,0,0,1-1.579,4.3c-1.134,1.562-1.243,2.7-.532,3.645s.9,1.172.9,1.172l11.494-11.993-6.029-14.087Z" transform="translate(142.223 65.851)" fill="#6800ff"/>
    <path id="Caminho_7153" data-name="Caminho 7153" d="M3025.9,237.044a12.137,12.137,0,0,1,4.891,4.377c4.047,6.148,22.458,47.629,22.458,47.629h-21.163l-15.411-33.8c-.642-1.406-3.818-7.269-4.111-9.935-.946-8.589,6.186-11.552,13.335-8.273" transform="translate(130.422 40.348)" fill="#222" fill-rule="evenodd"/>
    <path id="Caminho_7154" data-name="Caminho 7154" d="M3029.1,211.53c-2.439,4.351,1.75,10.418,6.9,9.978l-.006,1.382-2.811,4,2.769,4.116,2.88,1.048,6.959-1.791V217.729c.255-.077.265.379.781.064a5.8,5.8,0,0,0,1.457-3.849c-.209-1.2-1.749-1.889-1.749-1.889h0c1.448-3.562,2.594-4.127-1.136-6.106s-11.249-1.829-11.249-1.829l-3.415,1.145c-.148,3.312.313,3.245-1.377,6.264" transform="translate(148.553 4.322)" fill="#8a6037" fill-rule="evenodd"/>
    <path id="Caminho_7155" data-name="Caminho 7155" d="M3032.012,212.949a6.354,6.354,0,0,0,.755-.017,17.694,17.694,0,0,0,6.241-1.286,6.571,6.571,0,0,1-3.412,3.654,11.3,11.3,0,0,1-4.366,1.192l1.53-2.178.007-1.382Z" transform="translate(151.789 12.897)" fill="#683c11" fill-rule="evenodd"/>
    <path id="Caminho_7156" data-name="Caminho 7156" d="M3031.382,210.672c2.878.479,5.2.066,6.964.278a5.026,5.026,0,0,1,2.535,1.209c1.65,1.333,2.928,4.627,3.3,6.809,0,0,1.928-.807,2.557-.406s.234,1.363.138,1.761-.986.828-1.271,1.076c-.856.742,1.163,1.057,3.545-.864,7.622-6.15,5.212-15.7-5.453-19.551-9.681-3.493-20.837,7.984-12.316,9.689" transform="translate(148.507)" fill="#222" fill-rule="evenodd"/>
    <path id="Caminho_7157" data-name="Caminho 7157" d="M3031.881,214.617c-6.336,5.65-10.016,13.452-12.269,21.639,4.153-.274,8.493-.252,12.607-.387Z" transform="translate(138.552 16.282)" fill="#dac5f9" fill-rule="evenodd"/>
    <path id="Caminho_7158" data-name="Caminho 7158" d="M3036.921,229.075a.763.763,0,1,1-.763.764.764.764,0,0,1,.763-.764m0-4.424a.763.763,0,1,1-.763.764A.764.764,0,0,1,3036.921,224.651Zm-2.945-11.76c-2.642,4.516.24,7.723,2.839,9.171,3.665-2.379,6.959-4.7,6.959-9.171,0,0,1.265-.024,2.086,1.983,1.352,3.25-.916,10.549-.916,10.549s-2.545-3.294-4.661-3.472a7.456,7.456,0,0,0-3.492.462c-2.706-1.987-4.552.588-6.364,2.475-.571-4.813-.5-8.273,3.1-12Z" transform="translate(150.572 14.316)" fill="#fff" fill-rule="evenodd"/>
    <path id="Caminho_7159" data-name="Caminho 7159" d="M3051.026,221.891h-35.66c-1.376,0-2.8,1.157-2.5,2.5l5.33,23.569c.3,1.341,1.125,2.5,2.5,2.5h35.659c1.376,0,2.8-1.159,2.5-2.5l-5.329-23.569c-.3-1.341-1.125-2.5-2.5-2.5" transform="translate(130.818 24.569)" fill="#fff" fill-rule="evenodd"/>
    <path id="Caminho_7160" data-name="Caminho 7160" d="M3050.276,221.891h-35.657c-1.375,0-2.8,1.157-2.5,2.5l5.328,23.569c.3,1.341,1.126,2.5,2.5,2.5h35.66c1.375,0,2.8-1.159,2.5-2.5l-5.329-23.569c-.3-1.341-1.125-2.5-2.5-2.5" transform="translate(129.966 24.569)" fill="#6800ff" fill-rule="evenodd"/>
    <path id="Caminho_7161" data-name="Caminho 7161" d="M3023.207,227.517a2.5,2.5,0,1,0,2.7,1.714,2.284,2.284,0,0,0-2.7-1.714" transform="translate(141.119 30.884)" fill="#fff" fill-rule="evenodd"/>
    <path id="Caminho_7162" data-name="Caminho 7162" d="M3051.891,234.153h-18.107v2.336h19.275v-1.168a1.171,1.171,0,0,0-1.168-1.168" transform="translate(154.697 38.539)" fill="#fff" fill-rule="evenodd"/>
    <g id="Grupo_496" data-name="Grupo 496" transform="translate(2982.444 385.953)">
      <g id="Grupo_495" data-name="Grupo 495" clip-path="url(#clip-path-2)">
        <rect id="Retângulo_955" data-name="Retângulo 955" width="122.795" height="221.289" transform="translate(0.001)" fill="#222b54"/>
      </g>
    </g>
    <g id="Grupo_498" data-name="Grupo 498" transform="translate(2989.764 398.868)">
      <g id="Grupo_497" data-name="Grupo 497" clip-path="url(#clip-path-3)">
        <rect id="Retângulo_956" data-name="Retângulo 956" width="108.157" height="173.456" fill="#f2f2f2"/>
      </g>
    </g>
    <path id="Caminho_7164" data-name="Caminho 7164" d="M2979.479,291.789a.969.969,0,0,0,0-1.938h-17.93a.969.969,0,0,0,0,1.938Zm3.23-1.938a.969.969,0,0,0,0,1.938h.826a.969.969,0,0,0,0-1.938Z" transform="translate(71.3 101.995)" fill="#fff" fill-rule="evenodd"/>
    <path id="Caminho_7165" data-name="Caminho 7165" d="M2966.709,380.146h12.035a5.7,5.7,0,0,1,5.679,5.68h0a5.7,5.7,0,0,1-5.679,5.68h-12.035a5.7,5.7,0,0,1-5.678-5.68h0a5.7,5.7,0,0,1,5.678-5.68" transform="translate(71.812 204.867)" fill="#dac5f9" fill-rule="evenodd"/>
    <path id="Caminho_7166" data-name="Caminho 7166" d="M3041.023,293.133a8.073,8.073,0,0,1,8.028,8.031v4.978H2940.895v-4.978a8.073,8.073,0,0,1,8.029-8.031Z" transform="translate(48.87 105.734)" fill="#6800ff" fill-rule="evenodd"/>
    <path id="Caminho_7167" data-name="Caminho 7167" d="M2960.583,290.3h19.865a.969.969,0,0,1-.966.969h-17.929a.968.968,0,0,1-.969-.969m21.16,0a.968.968,0,0,0,.967.969h.826a.969.969,0,0,0,.969-.969Z" transform="translate(71.3 102.511)" fill="#fff" fill-rule="evenodd"/>
    <path id="Caminho_7168" data-name="Caminho 7168" d="M3165.188,343.274h23.372a4.9,4.9,0,0,1,4.884,4.884v79.419a16.805,16.805,0,0,1-33.611,0V348.629a5.369,5.369,0,0,1,5.354-5.355" transform="translate(298.304 162.859)" fill="#222b54" fill-rule="evenodd"/>
    <rect id="Retângulo_958" data-name="Retângulo 958" width="23.372" height="7.625" transform="translate(3463.493 498.509)" fill="#222"/>
    <path id="Caminho_7169" data-name="Caminho 7169" d="M3164.6,343.77h22.369a3.812,3.812,0,0,0,0-7.624H3164.6a3.812,3.812,0,0,0,0,7.624" transform="translate(299.394 154.739)" fill="#222" fill-rule="evenodd"/>
    <rect id="Retângulo_959" data-name="Retângulo 959" width="12.624" height="96.475" transform="translate(3468.867 394.41)" fill="#222b54"/>
    <path id="Caminho_7170" data-name="Caminho 7170" d="M3164.849,315.177h12.624V292.37s-4.777-4.133-4.133-4.133h-3.451s-5.041,4.287-5.041,4.343Z" transform="translate(304.018 100.156)" fill="#222" fill-rule="evenodd"/>
    <rect id="Retângulo_960" data-name="Retângulo 960" width="2.807" height="26.94" transform="translate(3473.906 388.394)" fill="#222b54"/>
    <path id="Caminho_7171" data-name="Caminho 7171" d="M3193.445,378.055h-33.611v9.9a16.805,16.805,0,0,0,33.611,0Z" transform="translate(298.304 202.485)" fill="#222" fill-rule="evenodd"/>
    <path id="Caminho_7172" data-name="Caminho 7172" d="M2958.507,303.334a12.792,12.792,0,1,1-12.793,12.793,12.792,12.792,0,0,1,12.793-12.793" transform="translate(54.36 117.356)" fill="#6800ff" fill-rule="evenodd"/>
    <path id="Caminho_7173" data-name="Caminho 7173" d="M2958.507,321.157a12.794,12.794,0,1,1-12.793,12.793,12.793,12.793,0,0,1,12.793-12.793" transform="translate(54.36 137.662)" fill="#6800ff" fill-rule="evenodd"/>
    <rect id="Retângulo_961" data-name="Retângulo 961" width="56.043" height="2.481" transform="translate(3030.736 431.361)" fill="#222"/>
    <rect id="Retângulo_962" data-name="Retângulo 962" width="56.043" height="2.481" transform="translate(3030.736 437.699)" fill="#222"/>
    <rect id="Retângulo_963" data-name="Retângulo 963" width="21.422" height="2.481" transform="translate(3030.736 424.747)" fill="#ff2c34"/>
    <rect id="Retângulo_964" data-name="Retângulo 964" width="56.043" height="2.481" transform="translate(3030.736 469.331)" fill="#222"/>
    <rect id="Retângulo_965" data-name="Retângulo 965" width="56.043" height="2.481" transform="translate(3030.736 475.669)" fill="#222"/>
    <rect id="Retângulo_966" data-name="Retângulo 966" width="21.422" height="2.481" transform="translate(3030.736 462.718)" fill="#ff2c34"/>
    <path id="Caminho_7174" data-name="Caminho 7174" d="M2958.507,338.126a12.794,12.794,0,1,1-12.793,12.793,12.792,12.792,0,0,1,12.793-12.793" transform="translate(54.36 156.994)" fill="#6800ff" fill-rule="evenodd"/>
    <rect id="Retângulo_967" data-name="Retângulo 967" width="56.043" height="2.48" transform="translate(3030.736 505.634)" fill="#222"/>
    <rect id="Retângulo_968" data-name="Retângulo 968" width="56.043" height="2.48" transform="translate(3030.736 511.971)" fill="#222"/>
    <rect id="Retângulo_969" data-name="Retângulo 969" width="21.422" height="2.479" transform="translate(3030.736 499.02)" fill="#ff2c34"/>
    <path id="Caminho_7175" data-name="Caminho 7175" d="M2958.507,355.261a12.793,12.793,0,1,1-12.793,12.793,12.792,12.792,0,0,1,12.793-12.793" transform="translate(54.36 176.516)" fill="#6800ff" fill-rule="evenodd"/>
    <rect id="Retângulo_970" data-name="Retângulo 970" width="56.043" height="2.48" transform="translate(3030.736 542.289)" fill="#222"/>
    <rect id="Retângulo_971" data-name="Retângulo 971" width="56.043" height="2.48" transform="translate(3030.736 548.627)" fill="#222"/>
    <rect id="Retângulo_972" data-name="Retângulo 972" width="21.422" height="2.48" transform="translate(3030.736 535.675)" fill="#ff2c34"/>
    <path id="Caminho_7176" data-name="Caminho 7176" d="M3074.3,400.453h22.2a2.053,2.053,0,0,0,2.037-1.782,1.911,1.911,0,0,0,.012-.432l-.9-11.659a12.75,12.75,0,0,0-2.218-.732,2.249,2.249,0,0,1-1.645-1.493c-.015-.056-.031-.111-.045-.171-.509-2.242-3.746-2.957-4.343-.764-.076.285-.143.558-.2.824-.015.066-.031.135-.041.195-.1.473-.164.907-.214,1.288l0,.024a12.3,12.3,0,0,0-.111,1.585c-.294.372-.579.74-.852,1.1-.141.182-.276.362-.41.537q-.437.568-.856,1.1c-.129.167-.256.329-.385.488-.308.385-.611.751-.916,1.091-.137.156-.271.306-.413.451a6.372,6.372,0,0,1-3.665,2.214c-2.407.332-6.339.6-8.238,4.129a1.312,1.312,0,0,0-.1.225,1.371,1.371,0,0,0,1.307,1.782" transform="translate(199.29 207.086)" fill="#222" fill-rule="evenodd"/>
    <path id="Caminho_7177" data-name="Caminho 7177" d="M3122.074,371.368v13.659c0,15.146-2.67,48.406-3.639,66.786l-10.166-.2-8.343-66.29-14.254,2.041-.7-18.092h0c-.168-62.536,31.865-47.973,29.063-12.517-.308,3.9,9.539,10.328,8.042,14.611" transform="translate(213.012 143.481)" fill="#222b54" fill-rule="evenodd"/>
    <path id="Caminho_7178" data-name="Caminho 7178" d="M3090.054,347.834l24.145,5.19-17.416,39.543-6.533,33.664-10.717.276c.282-16.319,1.572-32.735,2.353-42.129.41-4.925,5.309-22.353,8.169-36.543" transform="translate(206.817 168.054)" fill="#222b54" fill-rule="evenodd"/>
    <path id="Caminho_7179" data-name="Caminho 7179" d="M3094.2,396.541c.185,3.239,11.667,2.122,13.5,1.151a2.207,2.207,0,0,0,1.06-1.975,13.72,13.72,0,0,0-.882-4.587c-.735-2.283-.632-2.24-1.144-3.8,0,0,.133-2.537-3.63-3.5s-5.141,5.344-5.783,6.561c-.588,1.11-2.875,2.634-3.11,5.372a5.435,5.435,0,0,0-.014.781" transform="translate(223.525 208.946)" fill="#222" fill-rule="evenodd"/>
    <path id="Caminho_7180" data-name="Caminho 7180" d="M3111.2,334.02c-3.487,7.652-5.759,10.082-15.737,11.569-8.093,1.207-23.5-17-24.663-19.48s3.259-8.977,4.688-8.226,18.031,13.441,19.166,13.358c1.153-.081,5.067-1.872,13.948-7.639.841-.539,5.051,6.722,2.6,10.418" transform="translate(196.656 133.863)" fill="#f2f2f2" fill-rule="evenodd"/>
    <path id="Caminho_7181" data-name="Caminho 7181" d="M3128.723,325.383c3.322,4.955-6.688,33.846-3.915,59.016-15.545,2.67-31.886.738-41.169-2.216.021-19.046,1.77-41.748,5.717-55.972.928-2.308,2.763-3.951,7.3-5.222,11.058-3.1,27.511-2.394,32.064,4.394" transform="translate(211.496 135.464)" fill="#ff2c34" fill-rule="evenodd"/>
    <path id="Caminho_7182" data-name="Caminho 7182" d="M3080.62,304.873h105.473a1.6,1.6,0,0,1,1.59,1.589h0a1.6,1.6,0,0,1-1.59,1.592H3080.62a1.593,1.593,0,0,1-1.589-1.592h0a1.594,1.594,0,0,1,1.589-1.589" transform="translate(206.246 119.11)" fill="#ccc" fill-rule="evenodd"/>
    <path id="Caminho_7183" data-name="Caminho 7183" d="M3080.62,309.432h105.473a1.6,1.6,0,0,1,1.59,1.589v0a1.6,1.6,0,0,1-1.59,1.589H3080.62a1.594,1.594,0,0,1-1.589-1.589v0a1.593,1.593,0,0,1,1.589-1.589" transform="translate(206.246 124.304)" fill="#ccc" fill-rule="evenodd"/>
    <path id="Caminho_7184" data-name="Caminho 7184" d="M3091.753,324.2a11.626,11.626,0,0,0,4.789,4.944l-.058,3.162-.46.391c-1.8,1.93-.034,6.5,1.834,8.091,3.051-.355,9.537-6.317,7.977-8.626l-.678-.755-.15-4.475c.268-.015,2.217-1.123,2.8-1.3a3.008,3.008,0,0,0,1.49-2.475c.056-1.179-1.767-.8-1.767-.8,2.21-3.025,4.708-5.491,1.465-8.211s-10.688-4.311-10.688-4.311l-4.481-1.553c.569,1.547-.621,5.975-1.771,9.2-1.031,2.89-1.763,3.8-.3,6.717" transform="translate(219.799 122.998)" fill="#f6bb96" fill-rule="evenodd"/>
    <path id="Caminho_7185" data-name="Caminho 7185" d="M3099.937,317.292s-2.535,4.349-4.619,4.743-1.016.1-1.795.011l.06-3.162c1.435.231,2.838.118,6.353-1.592" transform="translate(222.758 133.258)" fill="#f19d89" fill-rule="evenodd"/>
    <path id="Caminho_7186" data-name="Caminho 7186" d="M3110.434,326.245c.2-4.268,3.672-6.108,7.082-5.569,8.561,2.182,8.855,28.076,6.6,34.847-1.581,4.578-26.018,10.035-29.126,9.066-1.3-.407-3.491-1.741-4.142-3.22-.385-.875-.781-2.236,1.1-3.07,5.006-2.216,19.841-7.19,20.129-8.555,2.389-11.357-1.962-16.746-1.646-23.5" transform="translate(219.343 137.01)" fill="#f2f2f2" fill-rule="evenodd"/>
    <path id="Caminho_7187" data-name="Caminho 7187" d="M3075.847,319.554c.373,2.347-1.817,6.135-3.482,6.809-.184-.332-1.3-1.765-2.034-2.867-1.583-2.366,2.155-7.31,3.25-6.213Z" transform="translate(195.896 133.071)" fill="#fff" fill-rule="evenodd"/>
    <path id="Caminho_7188" data-name="Caminho 7188" d="M3076.573,321.779c-.234-1.078-1.215-5.344-2.01-6.061-.405-.366-.5-.2-.683.032a1.945,1.945,0,0,0-.246,1.134,16.408,16.408,0,0,0,.273,1.938c-2.407-1.258-4.71-4.212-6.469-6.234-.714-.821-1.852-.732-1.165.732a30.376,30.376,0,0,0,2.787,3.887l-3.038-1.957c-.843-.458-.839.58-.436,1.016.659.715,2.689,2.625,2.689,2.625l-2.214-.8c-.845-.31-.4.734-.177.918.518.419,2.356,1.592,2.356,1.592l-1.017-.334c-1.151-.381-.308,1.1.026,1.2.07.021,4.045,2.539,4.737,2.952,1.728,1.037,2.547,2.751,3.771,4.189a7.89,7.89,0,0,0,2.569-4.837Z" transform="translate(190.628 127.308)" fill="#f6bb96" fill-rule="evenodd"/>
    <path id="Caminho_7189" data-name="Caminho 7189" d="M3091.443,309.43c-1.317,4.157-.146,7.552,3.957,8.724,3.054.871,7.223.635,9.395,3.192,1.075,1.264.967,3.089-.238,5.909-.354.828-.83,1.442.573.794.644-.3,1.705-.717,2.067-.424a1.668,1.668,0,0,1-.244,2.462c-.286.2-.83.49-.83.49a3.914,3.914,0,0,0,3.3-.443c1.673-1.063,6.569-4.3,6.3-9.77-.4-8.112-8.309-10.885-15.372-15.138-3.1-1.87-7.856.918-8.9,4.2" transform="translate(219.801 118.826)" fill="#222" fill-rule="evenodd"/>
    <path id="Caminho_7190" data-name="Caminho 7190" d="M3099.174,338.87l-2.14.7-4.788-.839c-.532-.24-4.015-1.052-3.092.1.651.807,2.655,2.135,2.6,2.225-.64,1.168-7.125,2.918-7.188,3.023-.9,1.476,3.279.605,4,.49a26.274,26.274,0,0,0-2.61,1.363,1.445,1.445,0,0,0,1.361.409,17.8,17.8,0,0,1,2.757-.616c.2.143-2.655,1.354-2.46,1.474a1.271,1.271,0,0,0,1.059.165,24.885,24.885,0,0,1,2.683-.742c.25.1-1.845.847-1.607.92.187.056.236.389.422.364,5.008-.661,4.927-3.23,10.682-3.836,3.2-.334-.58-4.7-1.679-5.19" transform="translate(212.413 157.106)" fill="#f6bb96" fill-rule="evenodd"/>
    <rect id="Retângulo_973" data-name="Retângulo 973" width="68.876" height="68.053" transform="translate(3193.975 443.21) rotate(-75.369)" fill="#f2f2f2"/>
    <path id="Caminho_7191" data-name="Caminho 7191" d="M3071.32,293.371A19.929,19.929,0,1,1,3047,307.62a19.93,19.93,0,0,1,24.317-14.25" transform="translate(169.016 105.264)" fill="#ff2c34" fill-rule="evenodd"/>
    <path id="Caminho_7192" data-name="Caminho 7192" d="M3055.979,297.492l15.161,13.269-19.712,4.168Z" transform="translate(174.798 110.701)" fill="#fff" fill-rule="evenodd"/>
    <path id="Caminho_7193" data-name="Caminho 7193" d="M3137.566,254.388a8.057,8.057,0,1,1-8.056,8.057,8.056,8.056,0,0,1,8.056-8.057" transform="translate(263.756 61.593)" fill="#6800ff" fill-rule="evenodd"/>
    <path id="Caminho_7194" data-name="Caminho 7194" d="M3132.933,257.121a2.384,2.384,0,1,1-.455,3.339,2.384,2.384,0,0,1,.455-3.339m-.366-.481a2.988,2.988,0,0,1,3.994,4.418l2.379,3.128a.526.526,0,0,1-.1.708h0a.492.492,0,0,1-.708-.1l-2.379-3.128a2.989,2.989,0,0,1-3.19-5.029Z" transform="translate(265.897 63.463)" fill="#fff" fill-rule="evenodd"/>
    <path id="Caminho_7195" data-name="Caminho 7195" d="M3069.618,207.007H3119.2a18.568,18.568,0,0,1,18.569,18.567v12.365a18.568,18.568,0,0,1-18.569,18.567h-39.682l-9.9,9.107v-9.107a18.567,18.567,0,0,1-18.568-18.567V225.574a18.567,18.567,0,0,1,18.568-18.567" transform="translate(174.368 7.612)" fill="#222b54" fill-rule="evenodd"/>
    <path id="Caminho_7196" data-name="Caminho 7196" d="M3098.913,231.787V227.9l9.64-3.8-9.64-3.767v-3.855l13.818,5.984v3.3Zm-16.987,2.616,5.01-20.824h2.9L3084.8,234.4Zm-9.084-2.646-13.818-6V222.43l13.818-5.979v3.911l-9.639,3.686,9.639,3.827Z" transform="translate(183.453 15.101)" fill="#fff" fill-rule="evenodd"/>
    <rect id="Retângulo_974" data-name="Retângulo 974" width="62.515" height="8.326" transform="translate(3200.255 559.11)" fill="#ccc"/>
    <path id="Caminho_7197" data-name="Caminho 7197" d="M3080.62,286.639h105.473a1.6,1.6,0,0,1,1.59,1.589h0a1.6,1.6,0,0,1-1.59,1.59H3080.62a1.593,1.593,0,0,1-1.589-1.59h0a1.593,1.593,0,0,1,1.589-1.589" transform="translate(206.246 98.336)" fill="#ccc" fill-rule="evenodd"/>
    <path id="Caminho_7198" data-name="Caminho 7198" d="M3080.62,291.2h105.473a1.6,1.6,0,0,1,1.59,1.59h0a1.6,1.6,0,0,1-1.59,1.589H3080.62a1.593,1.593,0,0,1-1.589-1.589h0a1.593,1.593,0,0,1,1.589-1.59" transform="translate(206.246 103.53)" fill="#ccc" fill-rule="evenodd"/>
    <path id="Caminho_7199" data-name="Caminho 7199" d="M3161.135,479.32a6.254,6.254,0,1,1-6.253,6.255,6.255,6.255,0,0,1,6.253-6.255M3179.1,292.984c5.965-1.177,16.443,12.786,17.192,25.526.45,7.62.1,15.636-2.1,20.556-3.93,8.771-12.568,17.953-16.618,21.971V485.522a16.853,16.853,0,0,1-16.8,16.806h0a16.855,16.855,0,0,1-16.8-16.806V361.563c-3.938-3.682-13.6-13.257-17.709-22.206-1.792-3.9-2.316-9.815-2.233-15.9.224-16.068,11.53-31.856,17.425-30.915v34.171l9.414,6.06,9.413,6.059,9.412-6.059,9.413-6.06V292.984Z" transform="translate(257.496 105.019)" fill="#222b54" fill-rule="evenodd"/>
    <g id="Grupo_205" data-name="Grupo 205" transform="translate(2945.259 423.86)">
      <path id="Caminho_6536" data-name="Caminho 6536" d="M2937.273,380.917c-1.7,4.477-1.97,17.754-5.971,30.669-.161.841,3.9,2.152,4.395,1.54,6.413-14.1,16.115-29.937,18.034-39.106.641-3.059-2.488-9.8-6.249-7.265C2944.059,369.057,2938.682,377.193,2937.273,380.917Z" transform="translate(-2907.323 -234.885)" fill="#683c11"/>
      <path id="Caminho_6537" data-name="Caminho 6537" d="M2930.228,392.919a12.553,12.553,0,0,1,1.557-3.581,6.259,6.259,0,0,1,2.83-2.475c.009.674.3,1.7.914,1.97.488.214,3.348.139,3.746.492.267.238-.876,4.589-.148,6.459,0,0,2.606,1.972,3.949,2.92a4.9,4.9,0,0,1,1.44,1.384,1.94,1.94,0,0,1,.136,1.915,1.094,1.094,0,0,1-.109.141l-9.926-1.821-1.354-.533a12.752,12.752,0,0,1-.223-1.423q-.3-2.554-.595-5.109a19.72,19.72,0,0,0-2.605,5.186l-1.2-.473Q2929.433,395.447,2930.228,392.919Z" transform="translate(-2910.35 -211.34)" fill="#222b54" fill-rule="evenodd"/>
      <path id="Caminho_6538" data-name="Caminho 6538" d="M2931.237,349.682c-.551,3.791.174,7.646,1.033,11.379,2.715,11.781,7.89,28.87,13.243,39.709.65,1.32,8.375,3.515,8.591,2.15,2.173-13.9-.916-38.514-5.146-51.929-.909-2.882-2.015-5.81-4.109-7.982C2938.74,336.685,2932.24,342.785,2931.237,349.682Z" transform="translate(-2907.611 -264.324)" fill="#683c11"/>
      <path id="Caminho_6539" data-name="Caminho 6539" d="M2925.46,384.032c-.205,4.783,3.707,17.476,3.969,30.992.114.849,4.377.817,4.653.081,1.66-15.4,5.893-33.486,4.834-42.792-.353-3.1-5.442-8.521-8.217-4.933C2928.175,370.644,2925.629,380.061,2925.46,384.032Z" transform="translate(-2913.982 -234.887)" fill="#8a6037"/>
      <path id="Caminho_6540" data-name="Caminho 6540" d="M2926.347,395.382a12.539,12.539,0,0,1,.137-3.9,6.245,6.245,0,0,1,1.728-3.335c.256.62.9,1.472,1.571,1.5.533.021,3.166-1.1,3.667-.914.359.133.942,5.248,2.528,6.332a34.551,34.551,0,0,0,5.193,2.49,4.945,4.945,0,0,1,1.666,1.1,1.943,1.943,0,0,1,.48,1.859,1.269,1.269,0,0,1-.077.158h-11.551a13.3,13.3,0,0,1-.728-1.241l-2.424-4.537a19.793,19.793,0,0,0-.526,5.78h-1.29Q2926.531,398.025,2926.347,395.382Z" transform="translate(-2913.068 -209.88)" fill="#222b54" fill-rule="evenodd"/>
      <path id="Caminho_6541" data-name="Caminho 6541" d="M2952.682,358.816c-3.033,3.761-12.183,6.831-14.771,5.22-14.158-8.814-13.989-7.145-15.068-11.43-.836-3.322.955-6.681,2.683-9.637,1.542-2.638,17.38-5.106,24.5-3.254,1.444.377,3.673-.135,4.276,1.277,1.151,2.7,1.9,5.273,3.662,9.732C2958.955,353.228,2955.553,355.258,2952.682,358.816Z" transform="translate(-2917.196 -265.791)" fill="#222b56" fill-rule="evenodd"/>
      <path id="Caminho_6542" data-name="Caminho 6542" d="M2925.136,343.869c5.039-6.891,16.96-5.757,20.612,3.209,4.039,9.918-.915,49.026-3.183,56.582-1.033,1.966-9.911,5.59-11.509,1.891-1.192-11.565-4.719-33.067-6.444-38.922C2923.318,362.227,2919.912,351.019,2925.136,343.869Z" transform="translate(-2917.548 -265.396)" fill="#8a6037"/>
      <path id="Caminho_6543" data-name="Caminho 6543" d="M2958.771,349.242c.3.924-5.6,1.821-6.414,1.1-7.522-6.7-17.071-15.963-21.9-24.809-.83-1.521,2.845-6.794,2.625-8.514C2941.186,319.363,2956.129,340.984,2958.771,349.242Z" transform="translate(-2908.414 -290.916)" fill="#222" fill-rule="evenodd"/>
      <path id="Caminho_6544" data-name="Caminho 6544" d="M2965.369,387.284c-3.808,2.721-37.294,4.6-41.776,5.95.371-7.573.176-19.887-1.091-27.362-.726-4.272-1.078-10.485-.2-14.727,1.292-6.2,3.546-10.117,7.5-11.89,4.135-1.857,6.88,2.8,11.41,2.856a21.307,21.307,0,0,0,6.747-1.031c1.624-.522,3.731-2.15,5.488-1.448,1.649.663,2.424,3.012,3.14,4.45C2957.773,346.451,2966.323,370.687,2965.369,387.284Z" transform="translate(-2918.161 -266.078)" fill="#ff2c34" fill-rule="evenodd"/>
      <path id="Caminho_6545" data-name="Caminho 6545" d="M2952.063,355.281c.78-5.26,2.761-10.423,2.372-15.728-.311-4.189-3.752-7.693-5.945-11.593-1.04-1.848-.449-4.942-1.7-6.493-2.581-3.2-6.324-3.722-10.237-4.982-10.709-3.457-13.482,12.558-13.039,16.085s2.653,8.48,3.287,11.978c1.628,8.953-.542,18.931-3.808,27.424-.147.389,23.128.434,27.086-.362,4.015-.809,4.528-2.3,3.151-5.853A20.054,20.054,0,0,1,2952.063,355.281Z" transform="translate(-2916.783 -292.075)" fill="#222" fill-rule="evenodd"/>
      <path id="Caminho_6546" data-name="Caminho 6546" d="M2956.48,330.269c-8.371-.854-23.577,1.26-29.092,1.607.229,6.388,31.922,7.714,33.966,5.584C2965.993,332.614,2959.146,330.541,2956.48,330.269Z" transform="translate(-2911.778 -276.046)" fill="#683c11"/>
      <path id="Caminho_6547" data-name="Caminho 6547" d="M2931.677,326.333q-.394,15.037-.785,30.074a3.763,3.763,0,0,1-.585,2.327c-1.06,1.3-3.412.854-4.51-.419-4.73-5.49-6.7-27.246-5.229-31.193,1.207-3.245,3.552-6.463,6.78-7.922C2931.844,317.166,2931.767,322.827,2931.677,326.333Z" transform="translate(-2920.091 -288.916)" fill="#222" fill-rule="evenodd"/>
      <path id="Caminho_6548" data-name="Caminho 6548" d="M2958.391,329.628c-1.617-1.078-30.859,7.584-35.822,12.341-1.352,1.3.46,4.865,2.986,5.243a15.388,15.388,0,0,0,5.6-.6C2942.517,343.311,2963.249,333.515,2958.391,329.628Z" transform="translate(-2917.793 -276.652)" fill="#8a6037"/>
      <path id="Caminho_6549" data-name="Caminho 6549" d="M2935.02,314.627a16.316,16.316,0,0,0,.439,7.19,2.555,2.555,0,0,1,.022,2.165,2.367,2.367,0,0,1-1.949.687,11.294,11.294,0,0,1-3.566-.267,3.809,3.809,0,0,1-2.611-2.268,5.647,5.647,0,0,1,.1-2.931q.589-2.785,1.185-5.571a3.18,3.18,0,0,1,.62-1.53,2.191,2.191,0,0,1,2.586-.267,6.4,6.4,0,0,1,1.987,1.938Z" transform="translate(-2911.984 -297.164)" fill="#683c11"/>
      <path id="Caminho_6550" data-name="Caminho 6550" d="M2939.469,320.63a11.153,11.153,0,0,0,.883-3.9,20.258,20.258,0,0,0,.047-5.513,7.019,7.019,0,0,0-2.706-4.655,7.333,7.333,0,0,0-6.42-.5,6.835,6.835,0,0,0-4.315,3.6,9.515,9.515,0,0,0-.5,3.1,11.49,11.49,0,0,0,.287,4.06,7.47,7.47,0,0,0,2.691,3.562,17.808,17.808,0,0,0,3.99,2.126,7.954,7.954,0,0,0,2.507.708C2937.672,323.319,2938.75,322.07,2939.469,320.63Z" transform="translate(-2912.907 -303.964)" fill="#8a6037"/>
      <path id="Caminho_6551" data-name="Caminho 6551" d="M2932.2,316.51a4.074,4.074,0,0,1-5.372.909,5.266,5.266,0,0,1-2.11-4.067c-.085-1.607,4.463-7.689,9.584-8.332a12.341,12.341,0,0,1,4.4-.013c1.087.257,3.194.888,3.489,2.259.289,1.356-.832,1.6-1.735,1.337a5.517,5.517,0,0,0-3.979.064C2935.051,309.272,2933.748,314.507,2932.2,316.51Z" transform="translate(-2914.826 -304.816)" fill="#222" fill-rule="evenodd"/>
      <path id="Caminho_6552" data-name="Caminho 6552" d="M2928.234,309.783a2.813,2.813,0,0,0-1.053-.2,1.3,1.3,0,0,0-.956.426,1.557,1.557,0,0,0-.188,1.384,2.258,2.258,0,0,0,2.6,1.784,1.527,1.527,0,0,0,1.177-1.81c-.012-.047-.022-.094-.037-.141A2.114,2.114,0,0,0,2928.234,309.783Z" transform="translate(-2913.412 -299.386)" fill="#8a6037"/>
      <path id="Caminho_6553" data-name="Caminho 6553" d="M2929.446,329.143c-1.085,1.57,2.593,2.494,2.346,3.453-.212.832-5.417.958-6.653,1.277a1.82,1.82,0,0,0-1.5,1.138,2.148,2.148,0,0,0,.62,1.9,4.925,4.925,0,0,0,4,1.525,14.021,14.021,0,0,0,4.174-1.142,6.631,6.631,0,0,0,2.071-1.11,3.423,3.423,0,0,0,.241-4.751C2933.425,330.146,2931.011,329.778,2929.446,329.143Z" transform="translate(-2916.085 -277.1)" fill="#8a6037"/>
      <path id="Caminho_6554" data-name="Caminho 6554" d="M2949.723,334.132a13.584,13.584,0,0,0-3.968-1.643c.793.785,2.457,2.781,2,3.508-.443.706-2.529-2.2-3.361-2.325-1.639-.237-3.449.625-4.987-.128-1.159-.569-1.956-2.2-1.016-3.217C2942.6,325.783,2949.19,330.295,2949.723,334.132Z" transform="translate(-2899.714 -277.924)" fill="#8a6037"/>
    </g>
  </g>
</svg>
